# 3ds Max Wavefront OBJ Exporter v0.97b - (c)2007 guruware
# File Created: 24.04.2016 12:07:06

mtllib belt.mtl

#
# object Sphere001
#

v  -23.0159 -42.8556 -123.1240
v  -0.0000 -42.8556 -125.2567
v  -0.0000 42.8557 -125.2567
v  -23.0159 42.8557 -123.1240
v  -45.2480 -42.8556 -116.7984
v  -45.2480 42.8557 -116.7984
v  -65.9392 -42.8556 -106.4954
v  -65.9392 42.8557 -106.4954
v  -84.3849 -42.8556 -92.5658
v  -84.3849 42.8557 -92.5658
v  -99.9571 -42.8556 -75.4840
v  -99.9571 42.8557 -75.4840
v  -112.1253 -42.8556 -55.8317
v  -112.1253 42.8557 -55.8317
v  -120.4752 -42.8556 -34.2781
v  -120.4752 42.8557 -34.2781
v  -124.7224 -42.8556 -11.5572
v  -124.7224 42.8557 -11.5572
v  -124.7224 -42.8556 11.5573
v  -124.7224 42.8557 11.5573
v  -120.4751 -42.8556 34.2782
v  -120.4751 42.8557 34.2782
v  -112.1252 -42.8556 55.8318
v  -112.1252 42.8557 55.8318
v  -99.9570 -42.8556 75.4841
v  -99.9570 42.8557 75.4841
v  -84.3848 -42.8556 92.5659
v  -84.3848 42.8557 92.5659
v  -65.9391 -42.8556 106.4955
v  -65.9391 42.8557 106.4955
v  -45.2478 -42.8556 116.7985
v  -45.2478 42.8557 116.7985
v  -23.0157 -42.8556 123.1240
v  -23.0157 42.8557 123.1240
v  0.0002 -42.8556 125.2567
v  0.0002 42.8557 125.2567
v  23.0161 -42.8556 123.1240
v  23.0161 42.8557 123.1240
v  45.2481 -42.8556 116.7984
v  45.2481 42.8557 116.7984
v  65.9394 -42.8556 106.4953
v  65.9394 42.8557 106.4953
v  84.3851 -42.8556 92.5657
v  84.3851 42.8557 92.5657
v  99.9572 -42.8556 75.4839
v  99.9572 42.8557 75.4839
v  112.1254 -42.8556 55.8315
v  112.1254 42.8557 55.8315
v  120.4752 -42.8556 34.2779
v  120.4752 42.8557 34.2779
v  124.7225 -42.8556 11.5570
v  124.7225 42.8557 11.5570
v  124.7224 -42.8556 -11.5575
v  124.7224 42.8557 -11.5575
v  120.4751 -42.8556 -34.2784
v  120.4751 42.8557 -34.2784
v  112.1251 -42.8556 -55.8320
v  112.1251 42.8557 -55.8320
v  99.9568 -42.8556 -75.4843
v  99.9568 42.8557 -75.4843
v  84.3847 -42.8556 -92.5661
v  84.3847 42.8557 -92.5661
v  65.9389 -42.8556 -106.4956
v  65.9389 42.8557 -106.4956
v  45.2476 -42.8556 -116.7986
v  45.2476 42.8557 -116.7986
v  23.0155 -42.8556 -123.1241
v  23.0155 42.8557 -123.1241
# 68 vertices

vn 0.1837 0.0000 0.9830
vn 0.0000 0.0000 1.0000
vn 0.3612 0.0000 0.9325
vn 0.5264 0.0000 0.8502
vn 0.6737 0.0000 0.7390
vn 0.7980 0.0000 0.6026
vn 0.8952 0.0000 0.4457
vn 0.9618 0.0000 0.2737
vn 0.9957 0.0000 0.0923
vn 0.9957 0.0000 -0.0923
vn 0.9618 0.0000 -0.2737
vn 0.8952 0.0000 -0.4457
vn 0.7980 0.0000 -0.6026
vn 0.6737 0.0000 -0.7390
vn 0.5264 0.0000 -0.8502
vn 0.3612 0.0000 -0.9325
vn 0.1837 0.0000 -0.9830
vn -0.0000 0.0000 -1.0000
vn -0.1838 0.0000 -0.9830
vn -0.3612 0.0000 -0.9325
vn -0.5264 0.0000 -0.8502
vn -0.6737 0.0000 -0.7390
vn -0.7980 0.0000 -0.6026
vn -0.8952 0.0000 -0.4457
vn -0.9618 0.0000 -0.2737
vn -0.9957 0.0000 -0.0923
vn -0.9957 0.0000 0.0923
vn -0.9618 0.0000 0.2737
vn -0.8952 0.0000 0.4457
vn -0.7980 0.0000 0.6026
vn -0.6737 0.0000 0.7390
vn -0.5264 0.0000 0.8502
vn -0.3612 0.0000 0.9325
vn -0.1837 0.0000 0.9830
# 34 vertex normals

vt -0.0001 0.9706 0.0000
vt -0.0001 1.0000 0.0000
vt 1.0001 1.0000 0.0000
vt 1.0001 0.9706 0.0000
vt -0.0001 0.9412 0.0000
vt 1.0001 0.9412 0.0000
vt -0.0001 0.9118 0.0000
vt 1.0001 0.9118 0.0000
vt -0.0001 0.8824 0.0000
vt 1.0001 0.8824 0.0000
vt -0.0001 0.8529 0.0000
vt 1.0001 0.8529 0.0000
vt -0.0001 0.8235 0.0000
vt 1.0001 0.8235 0.0000
vt -0.0001 0.7941 0.0000
vt 1.0001 0.7941 0.0000
vt -0.0001 0.7647 0.0000
vt 1.0001 0.7647 0.0000
vt -0.0001 0.7353 0.0000
vt 1.0001 0.7353 0.0000
vt -0.0001 0.7059 0.0000
vt 1.0001 0.7059 0.0000
vt -0.0001 0.6765 0.0000
vt 1.0001 0.6765 0.0000
vt -0.0001 0.6471 0.0000
vt 1.0001 0.6471 0.0000
vt -0.0001 0.6176 0.0000
vt 1.0001 0.6176 0.0000
vt -0.0001 0.5882 0.0000
vt 1.0001 0.5882 0.0000
vt -0.0001 0.5588 0.0000
vt 1.0001 0.5588 0.0000
vt -0.0001 0.5294 0.0000
vt 1.0001 0.5294 0.0000
vt -0.0001 0.5000 0.0000
vt 1.0001 0.5000 0.0000
vt -0.0001 0.4706 0.0000
vt 1.0001 0.4706 0.0000
vt -0.0001 0.4412 0.0000
vt 1.0001 0.4412 0.0000
vt -0.0001 0.4118 0.0000
vt 1.0001 0.4118 0.0000
vt -0.0001 0.3824 0.0000
vt 1.0001 0.3824 0.0000
vt -0.0001 0.3529 0.0000
vt 1.0001 0.3529 0.0000
vt -0.0001 0.3235 0.0000
vt 1.0001 0.3235 0.0000
vt -0.0001 0.2941 0.0000
vt 1.0001 0.2941 0.0000
vt -0.0001 0.2647 0.0000
vt 1.0001 0.2647 0.0000
vt -0.0001 0.2353 0.0000
vt 1.0001 0.2353 0.0000
vt -0.0001 0.2059 0.0000
vt 1.0001 0.2059 0.0000
vt -0.0001 0.1765 0.0000
vt 1.0001 0.1765 0.0000
vt -0.0001 0.1471 0.0000
vt 1.0001 0.1471 0.0000
vt -0.0001 0.1176 0.0000
vt 1.0001 0.1176 0.0000
vt -0.0001 0.0882 0.0000
vt 1.0001 0.0882 0.0000
vt -0.0001 0.0588 0.0000
vt 1.0001 0.0588 0.0000
vt -0.0001 0.0294 0.0000
vt 1.0001 0.0294 0.0000
vt -0.0001 -0.0000 0.0000
vt 1.0001 -0.0000 0.0000
# 70 texture coords

g Sphere001
usemtl wire_141007058
s 1
f 1/1/1 2/2/2 3/3/2 4/4/1 
f 5/5/3 1/1/1 4/4/1 6/6/3 
f 7/7/4 5/5/3 6/6/3 8/8/4 
f 9/9/5 7/7/4 8/8/4 10/10/5 
f 11/11/6 9/9/5 10/10/5 12/12/6 
f 13/13/7 11/11/6 12/12/6 14/14/7 
f 15/15/8 13/13/7 14/14/7 16/16/8 
f 17/17/9 15/15/8 16/16/8 18/18/9 
f 19/19/10 17/17/9 18/18/9 20/20/10 
f 21/21/11 19/19/10 20/20/10 22/22/11 
f 23/23/12 21/21/11 22/22/11 24/24/12 
f 25/25/13 23/23/12 24/24/12 26/26/13 
f 27/27/14 25/25/13 26/26/13 28/28/14 
f 29/29/15 27/27/14 28/28/14 30/30/15 
f 31/31/16 29/29/15 30/30/15 32/32/16 
f 33/33/17 31/31/16 32/32/16 34/34/17 
f 35/35/18 33/33/17 34/34/17 36/36/18 
f 37/37/19 35/35/18 36/36/18 38/38/19 
f 39/39/20 37/37/19 38/38/19 40/40/20 
f 41/41/21 39/39/20 40/40/20 42/42/21 
f 43/43/22 41/41/21 42/42/21 44/44/22 
f 45/45/23 43/43/22 44/44/22 46/46/23 
f 47/47/24 45/45/23 46/46/23 48/48/24 
f 49/49/25 47/47/24 48/48/24 50/50/25 
f 51/51/26 49/49/25 50/50/25 52/52/26 
f 53/53/27 51/51/26 52/52/26 54/54/27 
f 55/55/28 53/53/27 54/54/27 56/56/28 
f 57/57/29 55/55/28 56/56/28 58/58/29 
f 59/59/30 57/57/29 58/58/29 60/60/30 
f 61/61/31 59/59/30 60/60/30 62/62/31 
f 63/63/32 61/61/31 62/62/31 64/64/32 
f 65/65/33 63/63/32 64/64/32 66/66/33 
f 67/67/34 65/65/33 66/66/33 68/68/34 
f 2/69/2 67/67/34 68/68/34 3/70/2 
# 34 polygons

