# 3ds Max Wavefront OBJ Exporter v0.97b - (c)2007 guruware
# File Created: 25.04.2016 19:23:50

mtllib Helmet sphere.mtl

#
# object Plane001
#

v  6.3295 3.9495 9.4499
v  7.5612 3.9495 10.2633
v  7.5612 -3.9495 10.2633
v  6.3295 -3.9495 9.4499
v  5.2008 3.9495 8.6153
v  5.2008 -3.9495 8.6153
v  4.1777 3.9495 7.7613
v  4.1777 -3.9495 7.7613
v  3.2623 3.9495 6.8898
v  3.2623 -3.9495 6.8898
v  2.4568 3.9495 6.0028
v  2.4568 -3.9495 6.0028
v  1.7630 3.9495 5.1023
v  1.7630 -3.9495 5.1023
v  1.1824 3.9495 4.1904
v  1.1824 -3.9495 4.1904
v  0.7163 3.9495 3.2690
v  0.7163 -3.9495 3.2690
v  0.3659 3.9495 2.3403
v  0.3659 -3.9495 2.3403
v  0.1318 3.9495 1.4063
v  0.1318 -3.9495 1.4063
v  0.0147 3.9495 0.4691
v  0.0147 -3.9495 0.4691
v  0.0147 3.9495 -0.4691
v  0.0147 -3.9495 -0.4691
v  0.1318 3.9495 -1.4063
v  0.1318 -3.9495 -1.4063
v  0.3659 3.9495 -2.3403
v  0.3659 -3.9495 -2.3403
v  0.7163 3.9495 -3.2690
v  0.7163 -3.9495 -3.2690
v  1.1824 3.9495 -4.1904
v  1.1824 -3.9495 -4.1904
v  1.7630 3.9495 -5.1023
v  1.7630 -3.9495 -5.1023
v  2.4568 3.9495 -6.0028
v  2.4568 -3.9495 -6.0028
v  3.2623 3.9495 -6.8898
v  3.2623 -3.9495 -6.8898
v  4.1777 3.9495 -7.7613
v  4.1777 -3.9495 -7.7613
v  5.2008 3.9495 -8.6153
v  5.2008 -3.9495 -8.6153
v  6.3295 3.9495 -9.4499
v  6.3295 -3.9495 -9.4499
v  7.5612 3.9495 -10.2634
v  7.5612 -3.9495 -10.2634
# 48 vertices

vn 0.8785 -0.0000 -0.4777
vn 0.8670 -0.0000 -0.4984
vn 0.9002 -0.0000 -0.4355
vn 0.9198 -0.0000 -0.3923
vn 0.9374 -0.0000 -0.3483
vn 0.9529 -0.0000 -0.3034
vn 0.9662 -0.0000 -0.2579
vn 0.9773 -0.0000 -0.2118
vn 0.9863 -0.0000 -0.1652
vn 0.9930 -0.0000 -0.1183
vn 0.9975 -0.0000 -0.0711
vn 0.9997 -0.0000 -0.0237
vn 0.9997 -0.0000 0.0237
vn 0.9975 -0.0000 0.0711
vn 0.9930 -0.0000 0.1183
vn 0.9863 -0.0000 0.1652
vn 0.9773 -0.0000 0.2118
vn 0.9662 -0.0000 0.2579
vn 0.9529 -0.0000 0.3034
vn 0.9374 -0.0000 0.3483
vn 0.9198 -0.0000 0.3923
vn 0.9002 -0.0000 0.4355
vn 0.8785 -0.0000 0.4777
vn 0.8670 -0.0000 0.4984
# 24 vertex normals

vt 0.0435 1.0000 0.0000
vt -0.0000 1.0000 0.0000
vt -0.0000 0.0000 0.0000
vt 0.0435 0.0000 0.0000
vt 0.0870 1.0000 0.0000
vt 0.0870 0.0000 0.0000
vt 0.1304 1.0000 0.0000
vt 0.1304 0.0000 0.0000
vt 0.1739 1.0000 0.0000
vt 0.1739 0.0000 0.0000
vt 0.2174 1.0000 0.0000
vt 0.2174 0.0000 0.0000
vt 0.2609 1.0000 0.0000
vt 0.2609 0.0000 0.0000
vt 0.3043 1.0000 0.0000
vt 0.3043 0.0000 0.0000
vt 0.3478 1.0000 0.0000
vt 0.3478 0.0000 0.0000
vt 0.3913 1.0000 0.0000
vt 0.3913 0.0000 0.0000
vt 0.4348 1.0000 0.0000
vt 0.4348 0.0000 0.0000
vt 0.4783 1.0000 0.0000
vt 0.4783 0.0000 0.0000
vt 0.5217 1.0000 0.0000
vt 0.5217 0.0000 0.0000
vt 0.5652 1.0000 0.0000
vt 0.5652 0.0000 0.0000
vt 0.6087 1.0000 0.0000
vt 0.6087 0.0000 0.0000
vt 0.6522 1.0000 0.0000
vt 0.6522 0.0000 0.0000
vt 0.6957 1.0000 0.0000
vt 0.6957 0.0000 0.0000
vt 0.7391 1.0000 0.0000
vt 0.7391 0.0000 0.0000
vt 0.7826 1.0000 0.0000
vt 0.7826 0.0000 0.0000
vt 0.8261 1.0000 0.0000
vt 0.8261 0.0000 0.0000
vt 0.8696 1.0000 0.0000
vt 0.8696 0.0000 0.0000
vt 0.9130 1.0000 0.0000
vt 0.9130 0.0000 0.0000
vt 0.9565 1.0000 0.0000
vt 0.9565 0.0000 0.0000
vt 1.0000 1.0000 0.0000
vt 1.0000 0.0000 0.0000
# 48 texture coords

g Plane001
usemtl wire_177148027
s 1
f 1/1/1 2/2/2 3/3/2 4/4/1 
f 5/5/3 1/1/1 4/4/1 6/6/3 
f 7/7/4 5/5/3 6/6/3 8/8/4 
f 9/9/5 7/7/4 8/8/4 10/10/5 
f 11/11/6 9/9/5 10/10/5 12/12/6 
f 13/13/7 11/11/6 12/12/6 14/14/7 
f 15/15/8 13/13/7 14/14/7 16/16/8 
f 17/17/9 15/15/8 16/16/8 18/18/9 
f 19/19/10 17/17/9 18/18/9 20/20/10 
f 21/21/11 19/19/10 20/20/10 22/22/11 
f 23/23/12 21/21/11 22/22/11 24/24/12 
f 25/25/13 23/23/12 24/24/12 26/26/13 
f 27/27/14 25/25/13 26/26/13 28/28/14 
f 29/29/15 27/27/14 28/28/14 30/30/15 
f 31/31/16 29/29/15 30/30/15 32/32/16 
f 33/33/17 31/31/16 32/32/16 34/34/17 
f 35/35/18 33/33/17 34/34/17 36/36/18 
f 37/37/19 35/35/18 36/36/18 38/38/19 
f 39/39/20 37/37/19 38/38/19 40/40/20 
f 41/41/21 39/39/20 40/40/20 42/42/21 
f 43/43/22 41/41/21 42/42/21 44/44/22 
f 45/45/23 43/43/22 44/44/22 46/46/23 
f 47/47/24 45/45/23 46/46/23 48/48/24 
# 23 polygons

